<?xml version="1.0" standalone="no"?>
<!DOCTYPE svg PUBLIC "-//W3C//DTD SVG 20010904//EN"
 "http://www.w3.org/TR/2001/REC-SVG-20010904/DTD/svg10.dtd">
<svg version="1.0" xmlns="http://www.w3.org/2000/svg"
 width="2560.000000pt" height="984.000000pt" viewBox="0 0 2560.000000 984.000000"
 preserveAspectRatio="xMidYMid meet">

<g transform="translate(0.000000,984.000000) scale(0.100000,-0.100000)"
fill="#000000" stroke="none">
<path d="M3124 9816 c-68 -30 -143 -133 -144 -197 0 -72 69 -182 134 -213 137
-65 273 63 252 237 -7 67 -44 136 -86 165 -38 26 -107 29 -156 8z"/>
<path d="M1587 9256 c-83 -31 -131 -106 -132 -206 0 -51 6 -75 25 -110 91
-162 288 -125 346 67 30 96 -7 197 -86 238 -41 21 -111 26 -153 11z"/>
<path d="M3135 8991 c-43 -11 -86 -35 -113 -63 -36 -39 -42 -142 -42 -778 -1
-859 -14 -1048 -76 -1110 -22 -23 -32 -25 -110 -25 -84 0 -86 1 -114 32 -16
18 -34 49 -41 70 -7 24 -14 186 -19 453 -5 243 -13 430 -19 451 -15 49 -73
113 -125 138 -38 19 -50 20 -91 11 -108 -24 -128 -52 -145 -197 -6 -52 -10
-426 -10 -926 l0 -837 128 64 c184 93 215 100 407 101 175 0 235 -10 356 -56
255 -98 430 -312 510 -624 26 -101 30 -133 26 -200 -22 -337 -250 -659 -548
-775 -109 -42 -191 -53 -343 -48 -172 7 -276 34 -423 110 l-113 58 0 -298 c-1
-356 -12 -547 -33 -589 -20 -37 -87 -99 -132 -120 -32 -15 -38 -15 -68 -1 -19
9 -62 42 -95 73 l-62 57 -2 2226 -3 2227 -50 24 c-74 36 -147 35 -210 -4 -26
-16 -56 -41 -67 -55 -23 -31 -38 -152 -38 -302 l0 -108 -345 0 -346 0 -30 -67
c-49 -108 -263 -839 -508 -1733 -200 -730 -209 -778 -218 -1140 -14 -577 42
-865 252 -1295 128 -261 255 -444 445 -639 233 -240 454 -393 895 -623 345
-180 435 -248 522 -398 135 -230 192 -488 238 -1070 26 -325 30 -494 12 -536
-20 -48 -10 -45 -947 -351 l-315 -102 225 -9 c242 -9 2207 -1 2403 10 64 3
117 9 117 12 0 4 -87 34 -192 68 -106 34 -382 121 -613 195 l-420 133 2 145
c9 519 50 931 118 1165 114 392 200 485 685 740 232 122 362 198 500 293 601
411 959 954 1046 1587 14 99 18 199 18 415 1 364 -13 487 -95 875 -149 695
-516 1989 -632 2225 -47 96 -33 93 -514 98 l-403 4 0 366 c0 392 -8 515 -38
565 -37 64 -128 104 -197 88z"/>
<path d="M2335 8954 c-75 -39 -104 -96 -105 -199 0 -141 69 -210 204 -203 67
4 70 5 106 45 37 42 70 123 70 172 0 42 -45 126 -81 153 -65 48 -140 61 -194
32z"/>
<path d="M12465 8049 c-115 -26 -226 -90 -309 -180 -99 -107 -149 -245 -150
-419 -1 -221 92 -379 295 -502 174 -105 424 -115 616 -24 104 50 206 152 255
256 48 101 62 167 61 280 -2 170 -64 314 -190 442 -116 118 -227 159 -424 157
-63 -1 -132 -5 -154 -10z"/>
<path d="M24160 6510 l0 -740 -180 0 -180 0 0 -445 0 -445 178 0 179 0 6 -257
c4 -141 7 -527 7 -857 0 -331 3 -928 7 -1327 l6 -727 86 -6 c47 -3 258 -8 469
-12 l382 -7 0 1597 0 1596 240 0 240 0 0 445 0 445 -240 0 -240 0 0 740 0 740
-480 0 -480 0 0 -740z"/>
<path d="M2665 5972 c-171 -59 -298 -198 -326 -356 -37 -214 61 -422 237 -503
244 -111 508 -25 619 201 67 136 69 284 8 415 -33 70 -131 169 -201 205 -111
56 -242 71 -337 38z"/>
<path d="M16077 5829 c-204 -20 -521 -173 -757 -367 l-75 -62 -3 170 -2 170
-490 0 -490 0 0 -2025 0 -2025 484 0 484 0 6 202 c3 112 10 581 16 1043 18
1417 36 1575 202 1781 95 118 210 191 372 239 166 47 376 51 539 9 208 -53
343 -187 416 -413 66 -202 72 -332 78 -1695 l5 -1169 397 7 c218 3 435 9 482
12 l86 6 7 1002 c7 983 -1 1622 -24 1845 -45 432 -213 776 -484 990 -144 114
-371 224 -529 256 -148 29 -528 42 -720 24z"/>
<path d="M20670 5830 c-267 -21 -451 -71 -688 -187 -376 -184 -791 -594 -996
-985 -120 -229 -181 -452 -207 -759 -55 -668 178 -1313 638 -1760 437 -425
1016 -635 1646 -598 349 21 583 79 852 209 424 206 774 551 986 972 104 208
170 407 189 573 13 116 13 663 0 780 -49 444 -332 934 -730 1267 -311 261
-704 440 -1050 478 -134 15 -503 20 -640 10z m472 -856 c176 -28 370 -108 517
-210 288 -203 459 -562 478 -1004 19 -431 -130 -843 -393 -1090 -210 -197
-471 -290 -814 -290 -288 1 -468 53 -687 199 -148 100 -256 225 -347 408 -149
298 -200 701 -130 1041 134 657 712 1054 1376 946z"/>
<path d="M12157 5743 c-4 -3 -7 -917 -7 -2031 l0 -2025 403 7 c221 3 441 9
488 12 l86 6 6 1332 c4 732 8 1639 9 2016 l3 685 -491 3 c-270 1 -494 -1 -497
-5z"/>
<path d="M8825 5710 c-245 -22 -446 -69 -665 -157 -116 -46 -147 -61 -254
-127 -33 -20 -66 -36 -73 -36 -23 0 -33 38 -33 129 l0 91 -485 0 -485 0 0
-2805 0 -2805 485 0 485 0 0 870 0 869 189 -93 c261 -129 434 -182 701 -218
122 -16 506 -16 635 1 567 72 1012 313 1392 755 123 143 207 271 282 426 92
192 138 351 172 600 18 124 18 573 1 695 -66 469 -231 795 -584 1153 -354 360
-752 564 -1239 636 -132 20 -392 27 -524 16z m391 -855 c286 -50 457 -130 618
-291 274 -274 403 -704 352 -1180 -38 -354 -120 -539 -335 -754 -235 -235
-440 -326 -758 -337 -396 -14 -692 92 -920 330 -95 99 -157 191 -223 329 -82
173 -99 281 -100 618 0 245 14 392 45 487 30 90 123 277 178 358 141 209 401
374 687 435 110 24 333 26 456 5z"/>
</g>
</svg>
