<?xml version="1.0" encoding="iso-8859-1"?>
<!-- Generator: Adobe Illustrator 16.0.0, SVG Export Plug-In . SVG Version: 6.00 Build 0)  -->
<!DOCTYPE svg PUBLIC "-//W3C//DTD SVG 1.1//EN" "http://www.w3.org/Graphics/SVG/1.1/DTD/svg11.dtd">
<svg version="1.1" id="Capa_1" xmlns="http://www.w3.org/2000/svg" xmlns:xlink="http://www.w3.org/1999/xlink" x="0px" y="0px"
	 width="445.891px" height="445.891px" viewBox="0 0 445.891 445.891" style="enable-background:new 0 0 445.891 445.891;"
	 xml:space="preserve">
<g>
	<g id="Layer_3_23_">
		<path d="M385.497,164.408c6.164,0,12.256-1.634,17.618-4.729c16.854-9.729,22.647-31.354,12.919-48.204
			c-6.288-10.888-18.009-17.651-30.588-17.651c-6.165,0-12.257,1.637-17.619,4.732c-14.028,8.102-20.384,24.442-16.511,39.416
			l-33.854,19.543l8.903-46.357l-18.483-3.55l-11.979,62.356l-22.493,12.985l-30.245,4.972l-10.802-28.636v-26.01l48.014-41.547
			l-12.319-14.231l-35.693,30.891V69.293c14.904-4.131,25.88-17.803,25.88-34.005C258.244,15.83,242.415,0,222.957,0
			s-35.291,15.83-35.291,35.288c0,16.202,10.976,29.874,25.88,34.005v39.095l-35.697-30.891l-12.313,14.231l48.01,41.547v25.952
			l-10.822,28.693l-30.213-4.969l-22.508-12.991l-11.972-62.351l-18.484,3.55l8.903,46.354L94.593,137.97
			c3.874-14.974-2.481-31.314-16.511-39.416c-5.359-3.096-11.454-4.729-17.618-4.729c-12.583,0-24.3,6.761-30.585,17.648
			c-4.715,8.161-5.965,17.673-3.525,26.775c2.439,9.108,8.279,16.717,16.444,21.429c5.359,3.096,11.451,4.732,17.618,4.732
			c9.356,0,18.235-3.749,24.76-10.146l33.863,19.549l-44.599,15.47l6.167,17.782l59.987-20.806l22.476,12.979l19.433,23.708
			l-19.434,23.707l-22.476,12.979l-59.984-20.806l-6.17,17.783l44.599,15.469l-33.863,19.55
			c-6.524-6.397-15.403-10.144-24.76-10.144c-6.167,0-12.259,1.633-17.618,4.729c-16.856,9.729-22.648,31.354-12.919,48.204
			c6.285,10.888,18.006,17.651,30.585,17.651c6.167,0,12.259-1.638,17.618-4.732c8.165-4.712,14.005-12.323,16.444-21.43
			c1.604-5.988,1.601-12.148,0.079-17.992l33.845-19.537l-8.903,46.354l18.484,3.551l11.972-62.353l22.508-12.989l30.213-4.971
			l10.822,28.694v25.952l-48.01,41.545l12.316,14.232l35.694-30.888v39.093c-14.901,4.131-25.88,17.803-25.88,34.004
			c0,19.459,15.833,35.289,35.291,35.289c19.458,0,35.288-15.83,35.288-35.289c0-16.201-10.976-29.873-25.88-34.004v-39.096
			l35.697,30.891l12.315-14.232l-48.014-41.545v-26.01l10.801-28.638l30.246,4.972l22.493,12.986l11.978,62.354l18.484-3.549
			l-8.903-46.354l33.854,19.543c-3.873,14.974,2.48,31.313,16.511,39.416c5.362,3.097,11.454,4.729,17.619,4.729
			c12.579,0,24.3-6.762,30.588-17.648c9.729-16.85,3.935-38.475-12.919-48.204c-5.362-3.097-11.454-4.731-17.618-4.731
			c-9.358,0-18.238,3.748-24.763,10.146l-33.86-19.552l44.598-15.467l-6.167-17.783l-59.988,20.806l-22.521-13.003l-19.409-23.682
			l19.409-23.686l22.521-13.001l59.988,20.806l6.167-17.782l-44.598-15.47l33.86-19.549
			C367.259,160.662,376.138,164.408,385.497,164.408z M377.239,114.854c2.502-1.443,5.341-2.212,8.207-2.212
			c5.879,0,11.354,3.159,14.286,8.24c4.542,7.865,1.837,17.954-6.025,22.497c-2.506,1.443-5.344,2.212-8.21,2.212
			c-5.88,0-11.354-3.159-14.286-8.24C366.669,129.486,369.374,119.397,377.239,114.854z M74.699,137.351
			c-2.929,5.081-8.406,8.24-14.283,8.24c-2.866,0-5.708-0.766-8.21-2.21c-3.81-2.202-6.534-5.752-7.675-10.004
			c-1.138-4.246-0.554-8.686,1.646-12.495c2.933-5.081,8.41-8.237,14.287-8.237c2.866,0,5.708,0.766,8.21,2.213
			C76.539,119.397,79.241,129.486,74.699,137.351z M76.345,321.035c-1.138,4.252-3.861,7.803-7.671,10.002
			c-2.502,1.443-5.344,2.213-8.21,2.213c-5.876,0-11.354-3.159-14.287-8.24c-4.542-7.865-1.837-17.954,6.028-22.497
			c2.502-1.446,5.344-2.212,8.21-2.212c5.877,0,11.354,3.159,14.283,8.24C76.902,312.35,77.483,316.787,76.345,321.035z
			 M371.211,308.541c2.936-5.081,8.406-8.24,14.286-8.24c2.866,0,5.704,0.766,8.21,2.209c7.862,4.542,10.567,14.635,6.025,22.5
			c-2.933,5.081-8.407,8.236-14.286,8.236c-2.866,0-5.705-0.766-8.207-2.213C369.374,326.494,366.669,316.406,371.211,308.541z
			 M206.488,35.288c0-9.078,7.387-16.469,16.468-16.469c9.078,0,16.465,7.391,16.465,16.469c0,9.081-7.388,16.469-16.465,16.469
			C213.875,51.757,206.488,44.369,206.488,35.288z M239.425,410.604c0,9.078-7.392,16.469-16.469,16.469
			c-9.082,0-16.468-7.391-16.468-16.469c0-9.082,7.387-16.469,16.468-16.469C232.034,394.135,239.425,401.521,239.425,410.604z
			 M253.518,240.6l-14.907-2.451l-10.334,5.963l-5.332,14.138l-5.332-14.138l-10.332-5.963l-14.913,2.451l9.581-11.689v-11.929
			l-9.581-11.689l14.913,2.451l10.332-5.962l5.332-14.138l5.333,14.138l10.334,5.962l14.907-2.451l-9.578,11.689v11.929
			L253.518,240.6z"/>
	</g>
</g>
<g>
</g>
<g>
</g>
<g>
</g>
<g>
</g>
<g>
</g>
<g>
</g>
<g>
</g>
<g>
</g>
<g>
</g>
<g>
</g>
<g>
</g>
<g>
</g>
<g>
</g>
<g>
</g>
<g>
</g>
</svg>
