<svg xmlns="http://www.w3.org/2000/svg" height="800" width="1200" viewBox="-27.599715 -10.8672 239.19753 65.2032"><path d="M37.2637 33.129l-9.1757-5.301c-1.2891-.7422-2.9375-.3008-3.6836.9883-.289.5078-.4024 1.0664-.3477 1.6094v10.3594c0 1.4804 1.2031 2.6835 2.6875 2.6835 1.4805 0 2.6836-1.203 2.6836-2.6835v-5.957l5.1406 2.9687c1.2891.746 2.9414.3008 3.6836-.9883.7461-1.289.3047-2.9375-.9883-3.6797M14.4434 21.7695a2.6422 2.6422 0 00-1.3164-2.328l-9.1758-5.297a2.6327 2.6327 0 00-1.3125-.3515c-.9414 0-1.8164.5039-2.2851 1.3164-.7266 1.2578-.293 2.871.9648 3.5976l5.2891 3.0508-5.289 3.0547c-.6094.3516-1.047.918-1.2266 1.5977-.1836.6796-.0899 1.3906.2617 2 .4687.8125 1.3437 1.3164 2.2812 1.3164.461 0 .918-.1211 1.3164-.3516l9.1758-5.2969a2.6477 2.6477 0 001.3164-2.3086M6.0333 10.3906l9.1758 5.2969c1.0703.621 2.3906.418 3.2343-.4063.5352-.4921.8672-1.1953.8672-1.9765V2.6875C19.3106 1.2031 18.1075 0 16.627 0c-1.4843 0-2.6875 1.2031-2.6875 2.6875v6.043l-5.211-3.0078c-1.289-.7461-2.9374-.3047-3.6835.9843-.7461 1.289-.3008 2.9375.9883 3.6836M26.666 22.1992c0 .2031-.1171.4844-.2616.6328l-3.6367 3.6367c-.1446.1446-.4297.2618-.6329.2618h-.9257c-.2032 0-.4883-.1172-.6329-.2617l-3.6406-3.6368c-.1445-.1484-.2617-.4297-.2617-.6328v-.9258c0-.207.1172-.4882.2617-.6328L20.5762 17c.1446-.1445.4297-.2617.6329-.2617h.9257c.2032 0 .4883.1172.6329.2617l3.6367 3.6406c.1445.1446.2617.4258.2617.6328zm-3.246-.4453v-.039c0-.1485-.086-.3555-.1914-.4649l-1.0742-1.0703c-.1055-.1094-.3125-.1953-.4649-.1953h-.039c-.1485 0-.3555.086-.4649.1953L20.1153 21.25c-.1055.1055-.1914.3125-.1914.4648v.0391c0 .1523.086.3594.1914.4648l1.0703 1.0743c.1094.1054.3164.1914.4649.1914h.039c.1524 0 .3594-.086.4649-.1914l1.0742-1.0743c.1055-.1054.1914-.3125.1914-.4648zm4.668-6.0664l9.1757-5.2969c1.2891-.7422 1.7344-2.3945.9883-3.6836-.746-1.289-2.3945-1.7304-3.6836-.9843l-5.1406 2.9687V2.6875C29.4278 1.2031 28.2247 0 26.7442 0c-1.4844 0-2.6875 1.2031-2.6875 2.6875v10.4063c-.0508.539.0547 1.1015.3477 1.6093.746 1.289 2.3945 1.7305 3.6836.9844M17.0489 27.5156c-.6094-.1172-1.2617-.0195-1.8398.3125L6.0333 33.129c-1.289.7422-1.7344 2.3906-.9883 3.6797.746 1.293 2.3945 1.7344 3.6836.9883l5.211-3.0078v5.996c0 1.4805 1.203 2.6837 2.6874 2.6837 1.4805 0 2.6836-1.2032 2.6836-2.6836V30.168c0-1.3399-.9804-2.4492-2.2617-2.6524m25.9492-12.4375c-.7422-1.293-2.3945-1.7343-3.6836-.9883l-9.1758 5.297c-.8789.5077-1.3632 1.4374-1.3476 2.3827-.0078.9414.4766 1.8594 1.3476 2.3594l9.1758 5.3008c1.289.7422 2.9375.3008 3.6836-.9883.7461-1.289.3008-2.9375-.9883-3.6836l-5.1953-3 5.1953-3c1.293-.7422 1.7344-2.3906.9883-3.6797m141 6.0586v.1016c0 .5-.418.871-.9336.871H170.174c.0234.3048.0625.6016.125.8946.5977 2.793 2.9883 4.8711 5.8281 4.8945h.75c.0586 0 .1172 0 .1797-.0039.0547 0 .1094-.0039.164-.0078.004 0 .008 0 .0118-.0039.9414-.0742 1.8906-.453 2.7383-1.0625h.004a3.0184 3.0184 0 00.1328-.1015c.008-.004.0156-.0117.0273-.0196a9.7728 9.7728 0 00.1133-.0898c.0156-.0117.0273-.0234.043-.0352a1.6523 1.6523 0 00.0937-.078c.0195-.0157.043-.0352.0625-.0509a.6012.6012 0 01.0742-.0664c.0234-.0234.0508-.0468.0742-.0703a.7512.7512 0 00.0586-.0547c.0312-.0273.0586-.0547.0898-.082.0156-.0156.0312-.0352.0469-.0508l.0937-.0937.043-.043.0937-.1055c.0156-.0117.0273-.0273.039-.043.0353-.0351.0665-.0703.0978-.1054.0117-.0156.0273-.0313.039-.0469.0313-.039.0587-.0742.0899-.1094l.0469-.0585c.0273-.0352.0547-.0665.078-.0977a4.369 4.369 0 00.0626-.086c.0195-.0273.039-.0507.0586-.078.0312-.043.0625-.086.0898-.129a.7856.7856 0 00.0273-.039 7.7826 7.7826 0 00.2265-.3516s0-.004.004-.0078c.0156-.0273.0352-.0508.0547-.0781.008-.0117.0156-.0235.0273-.0313.0117-.0195.0273-.0312.0391-.0469l.0352-.0351c.0156-.0117.0273-.0235.043-.0352.0117-.0117.0234-.0234.0391-.0312a.387.387 0 01.0664-.043.3564.3564 0 01.0508-.0312.6339.6339 0 00.0508-.0235c.0156-.0078.0312-.0117.043-.0195.0234-.0078.043-.0117.0664-.0195.0117-.004.0195-.0078.0312-.0118.0742-.0156.1524-.0273.2266-.0273.082 0 .168.0117.246.0352h.008c.0313.0117.0665.0195.0978.0351.008.004.0156.004.0234.0078a.7693.7693 0 01.0977.0508l.0156.0078c.4297.3125.5625.8594.3008 1.3086l-.004.0039a4.9269 4.9269 0 01-.0937.1484c-.008.0117-.0156.0235-.0234.0352-.9141 1.3906-2.1563 2.5-3.543 3.164-.0312.0118-.0586.0274-.0898.043-.004 0-.0117.004-.0156.004-.6406.2968-1.3281.5038-2.0625.5898-.0156 0-.0312.0039-.047.0039a3.0512 3.0512 0 01-.1874.0195c-.0352 0-.0703.0039-.1094.0078-.043 0-.0898.0039-.1328.0078-.0859 0-.1719.0039-.2578.0039h-.7578c-4.336-.0313-7.8281-3.6484-7.8281-8.0781 0-4.504 3.5156-8.1407 7.8867-8.1407.1289 0 .2578.004.3867.0078 1.5234.0782 2.9297.5977 4.0976 1.4493.004.0039.008.0078.0117.0078.0664.0468.129.0976.1915.1445.0312.0273.0664.0547.1015.082.0312.0235.0625.0508.0937.0742 1.6445 1.3711 2.754 3.4297 2.9375 5.8125zm-13.6992-.8672h11.668c-.5782-2.8125-2.9961-4.8476-5.789-4.8476-2.8438 0-5.2423 1.996-5.879 4.8476zm-19.2579-6.4453c.1446.1445.2423.3399.2657.5664 0 .0313.004.0625.004.0938V28.832c0 .5117-.4297.9375-.9375.9375s-.9336-.4258-.9336-.9375v-1.9062c-.3555.4297-.746.8203-1.1719 1.1601-.0117.0118-.0234.0196-.0352.0313a2.4137 2.4137 0 01-.121.0898c-1.2891.9922-2.8555 1.5625-4.4923 1.5625-2.6367 0-4.957-1.4023-6.3398-3.5273-.0117-.0156-.0273-.0352-.039-.0508-.0392-.0664-.0782-.1328-.1212-.2031-.0273-.043-.0508-.086-.078-.129-.0274-.0429-.0509-.0898-.0743-.1366a5.2693 5.2693 0 01-.1133-.2032c-.0117-.0234-.0195-.0468-.0312-.0703a8.3257 8.3257 0 01-.8828-3.375 7.327 7.327 0 010-.8281 8.3608 8.3608 0 01.8828-3.379c.0117-.0194.0195-.0429.0312-.0663a5.3183 5.3183 0 01.1133-.2031c.0234-.047.047-.0938.0742-.1368.0234-.043.0508-.0859.0781-.1289.0391-.0664.082-.1367.1211-.2031.0117-.0156.0273-.0352.0391-.0508 1.3828-2.125 3.7031-3.5273 6.3398-3.5273 1.7813 0 3.4649.6523 4.8047 1.789.3672.3086.707.6485 1.0157 1.0235v-1.879c0-.0312 0-.0624.004-.0937.0234-.2265.121-.4219.2656-.5664v-.0039c.0156-.0156.0352-.0273.0508-.043l.0156-.0156c.0117-.0117.0273-.0195.0391-.0273.0117-.0078.0234-.0196.0352-.0274a.0785.0785 0 00.0234-.0156c.0195-.0078.0352-.0195.0547-.0312.004 0 .008-.004.0117-.004l.0703-.0351h.004a.8698.8698 0 01.1719-.0508c.004 0 .0117-.0039.0156-.0039.0234-.0039.0508-.0078.078-.0117.0313 0 .0626-.0039.0938-.0039.0352 0 .0664.0039.0977.0039.0273.0039.0508.0078.078.0117.004 0 .008.004.0157.004a.8694.8694 0 01.1718.0507h.004c.0234.0117.047.0234.0664.0352.008 0 .0117.0039.0156.0039a.3564.3564 0 00.0508.0312c.008.0078.0195.0117.0273.0156.0117.0078.0234.0196.0352.0274a.219.219 0 01.0352.0273c.008.004.0117.0117.0195.0156.0156.0157.0352.0274.047.043l.004.004zm-7.4218 14.0742c3.207 0 5.8203-2.7968 5.8203-6.2382 0-3.457-2.6132-6.2696-5.8203-6.2696-3.1836 0-5.8203 2.8086-5.8203 6.2696 0 .1093.004.2148.008.3203 0 .0468.008.0898.008.1328.004.0625.008.125.0156.1836.004.0508.0117.0976.0156.1445.008.0547.0117.1133.0195.168.008.043.0156.082.0195.121.0117.0626.0195.125.0312.1876.008.0312.0156.0586.0195.086.0156.0741.0312.1444.0469.2187a.2385.2385 0 00.0156.0468c.664 2.6719 2.9453 4.629 5.621 4.629zM127.5606 6.7852h-.2539c-.0312 0-.0664 0-.0977.0039-.0352-.004-.0664-.004-.1016-.004-.0898 0-.1796 0-.2695.004-.0156 0-.0352.0039-.0508.0039-.0703 0-.1406.0039-.211.0117h-.039c-.0742.0078-.1446.0117-.2149.0195-.008.004-.0156.004-.0234.004-.078.0117-.1523.0195-.2226.0312h-.008c-.4727.0742-.8984.207-1.2774.3945 0 .004-.004.004-.008.004-.0546.0312-.1132.0624-.168.0937-.0116.0039-.0194.0117-.0311.0195a2.7297 2.7297 0 00-.1406.086c-.0196.0117-.0353.0273-.0509.039-.039.0234-.0741.0508-.1132.0781a1.2228 1.2228 0 01-.082.0664l-.0703.0586c-.043.0391-.082.0743-.1211.1133-.008.0078-.0156.0156-.0234.0235-.047.0507-.0937.0976-.1407.1484-.008.0117-.0156.0234-.0234.0312a3.3338 3.3338 0 00-.1132.129c-.0117.0195-.0273.039-.0391.0585a2.1686 2.1686 0 00-.086.1133.1446.1446 0 01-.0272.039c-.0312.047-.0625.0938-.0898.1407-.004.0078-.008.0117-.0117.0195-.254.418-.4336.9102-.547 1.504 0 .0077 0 .0195-.004.0273-.0155.0742-.0272.1523-.039.2305-.004.0234-.008.0468-.008.0703a3.1934 3.1934 0 00-.0273.203c-.004.0392-.008.0782-.0117.1212-.008.0547-.0156.1055-.0195.164a19.551 19.551 0 00-.0117.1797c-.004.039-.004.0782-.008.1211-.004.082-.008.168-.0117.254 0 .0234-.004.039-.004.0585-.004.1094-.004.2227-.004.332v1.543h-1.9453c-.1211-.0039-.2422.0196-.3516.0586-.3516.129-.6016.461-.6016.8477 0 .3633.1797.6718.461.8515a.9718.9718 0 00.4844.1524h.008v.0039h1.9453v13.625c-.004.0195 0 .0351 0 .0547v.0351a.8951.8951 0 00.246.5703l.004.004c.0196.0195.043.039.0626.0585.004.004.008.004.0117.0078.0156.0157.0352.0274.0508.039a.1231.1231 0 00.0273.0196.0642.0642 0 00.0273.0157.9658.9658 0 00.5234.1523.6416.6416 0 00.0898-.0078c.1836-.0156.3516-.0938.4883-.207l.004-.004a.3124.3124 0 00.0508-.0507c.004-.004.0117-.0078.0156-.0117.0156-.0157.0273-.0313.039-.043.1485-.1797.2306-.4024.2188-.6328v-13.625h2.0938v-.004h.008c.5547-.0273.961-.4609.9453-1v-.0077c.004-.0196 0-.039 0-.0586v-.0195c-.0156-.207-.1055-.3946-.246-.5391v-.0039h-.004a.648.648 0 00-.0548-.0508c-.008-.0078-.0156-.0117-.0195-.0195-.0156-.0117-.0273-.0195-.043-.0313-.0117-.0078-.0273-.0195-.039-.0273-.008-.0039-.0196-.0117-.0274-.0156a.4266.4266 0 00-.0586-.0313.03.03 0 00-.0156-.0078.5527.5527 0 00-.0703-.0312c-.004-.004-.008-.004-.0156-.0078l-.0703-.0235c-.008 0-.0156-.0039-.0234-.0039-.0234-.0039-.043-.0117-.0664-.0156-.0117 0-.0234 0-.0352-.0039-.0156-.0039-.0352-.0039-.0547-.0078h-.043c-.0117 0-.0234-.0039-.0352-.0039h-2.1249V11.754c.004-.0781.004-.1563.008-.2305 0-.0195 0-.043.004-.0625 0-.0664.004-.1328.008-.1953 0-.0117.004-.0273.004-.039a3.8912 3.8912 0 01.0195-.2188c.0742-.7617.2382-1.2422.4101-1.5352.004-.0078.004-.0117.008-.0195.0117-.0195.0273-.039.0391-.0586a.3435.3435 0 01.0312-.0469c.004-.0078.0117-.0234.0195-.0312a.5716.5716 0 01.0625-.0742c.2461-.2774.629-.4453 1.1836-.5117.008 0 .0117-.004.0234-.004a.8206.8206 0 01.0977-.0078c.0156-.0039.0352-.0039.0508-.0078.0312 0 .0586-.0039.0898-.0039.0234 0 .043-.0039.0703-.0039.0273-.0039.0547-.0039.082-.0039.0273 0 .0547-.004.082-.004h.2032c.0312 0 .0586-.0038.0898-.0077.0352.0039.0703.0078.1054.0078h.254c.5234 0 .953-.4297.953-.957 0-.5274-.4296-.9532-.953-.9532m5.0388.0273s-.004-.004-.008-.004c-.0195-.0077-.0352-.0155-.0586-.0194a.2827.2827 0 00-.0312-.0118 30.8971 30.8971 0 00-.047-.0117c-.0155-.0039-.0311-.0117-.043-.0117-.0194-.004-.0351-.0078-.0546-.0078-.0156-.004-.0273-.004-.043-.0078-.0312-.004-.0664-.004-.0977-.004-.5078 0-.9375.4259-.9375.9337v21.164c0 .5117.4297.9375.9375.9375.0312 0 .0664 0 .0977-.0039.004 0 .0117-.0039.0156-.0039l.082-.0117c.004 0 .0117-.0039.0195-.0039.0234-.0078.0469-.0117.0703-.0195.004 0 .008 0 .0117-.004.3593-.1132.625-.4179.664-.7929a.7429.7429 0 00.008-.0977V7.668c0-.0313-.004-.0625-.008-.0938-.0352-.3437-.2617-.6289-.578-.7617M60.877 24.789c-.0078-.0546-.0078-.1054-.0156-.1562a9.2433 9.2433 0 00-.0117-.1094c-.0078-.043-.0117-.082-.0196-.125-.0078-.039-.0156-.078-.0234-.121a.863.863 0 00-.0195-.0977c-.0117-.0469-.0196-.0899-.0313-.1367-.0078-.0235-.0156-.0508-.0234-.0743a.8937.8937 0 00-.0469-.1445c-.0039-.0195-.0117-.039-.0156-.0547a2.7045 2.7045 0 00-.0625-.1601c-.004-.0078-.0078-.0196-.0117-.0313-.0274-.0547-.0508-.1133-.0782-.168-.0039-.0039-.0039-.0078-.0078-.0117-.2226-.4492-.539-.8242-.9257-1.1406 0-.0039 0-.0039-.004-.0039-.0546-.043-.1093-.0898-.168-.1328 0 0-.0038-.004-.0077-.0078-.004 0-.0078-.004-.0117-.0078-.0352-.0234-.0703-.0508-.1016-.0742-.4805-.3399-1.0117-.6094-1.7852-.9063l-.0351-.0117c-.0117-.0078-.0274-.0117-.039-.0195-.4376-.164-.8907-.3203-1.3555-.4727h-.004s-.0038 0-.0038-.0039c-.0078 0-.0157-.0039-.0274-.0078a3.4416 3.4416 0 00-.1523-.0508c-.0313-.0078-.0547-.0156-.0782-.0234-.1562-.0547-.3164-.1055-.4765-.1602-.1133-.039-.2344-.078-.379-.125-.039-.0117-.1327-.043-.2109-.0664-.0039 0-.0039-.0039-.0078-.0039a6.3771 6.3771 0 00-.1445-.0469c-.3906-.125-.711-.2343-.9844-.3359-.4453-.164-.8515-.3398-1.1836-.5508a.0852.0852 0 01-.0195-.0117c-.4531-.289-.7656-.6445-.8398-1.1094l-.004-.0039a.8237.8237 0 01-.0077-.0976c-.004-.0078-.004-.0117-.004-.0157-.0038-.039-.0038-.0742-.0038-.1132 0-.0547.0039-.1094.0078-.1602 0-.0156 0-.0273.0039-.039.0039-.043.0078-.082.0117-.1211.0039-.0118.0039-.0235.0078-.0352.0078-.043.0156-.082.0234-.125.004-.0039.004-.0117.0078-.0195a1.3201 1.3201 0 01.039-.1328v-.004c.2032-.6054.6837-1.0546 1.25-1.371.0391-.0196.0782-.0391.1134-.0586.039-.0196.0742-.039.1093-.0547a3.375 3.375 0 01.1758-.0781c.0352-.0157.0664-.0313.1016-.043l.1875-.0703a3.0088 3.0088 0 01.1015-.0352c.0625-.0195.1211-.039.1836-.0547.0391-.0117.0743-.0234.1133-.0312.0586-.0157.1172-.0274.1719-.043l.1172-.0234c.0625-.0118.121-.0235.1758-.0313a.9066.9066 0 00.1015-.0156 3.3926 3.3926 0 01.207-.0195c.0157-.004.0313-.004.0508-.0078.086-.004.172-.0078.254-.0078.0976 0 .1953.0039.289.0078h.043c.6914.043 1.25.2109 1.711.4335.035.0157.0702.0352.1054.0508a.4265.4265 0 00.0586.0313c.043.0234.086.0468.1328.0742l.0234.0117c.0469.0274.0938.0586.1407.086a.012.012 0 00.0078.0039c.0507.0312.1015.0664.1523.0976 0 .004.0039.004.0039.0078.0508.0313.0977.0625.1445.0977a.4726.4726 0 00.0547.039c.1094.082.2813.2149.4375.3438a.2432.2432 0 01.0469.0351c.1172.0977.2266.1836.332.2618a.7218.7218 0 00.0469.0351c.0039.004.0078.0078.0117.0078l.0352.0235c.0273.0195.0586.039.086.0586.0116.0078.0234.0117.035.0195l.0821.0469c.0117.0039.0195.0078.0313.0117a.8927.8927 0 00.0898.039c.0078.004.0117.004.0195.0078.0352.0118.0703.0235.1055.0274l.0039.0039c.0781.0117.1523.0156.2305-.004.0078 0 .0156-.0038.0234-.0038.0195-.004.043-.0117.0625-.0156.0078-.004.0117-.0078.0195-.0118a.0556.0556 0 00.0235-.0078 1.1026 1.1026 0 00.0937-.0507c.0078 0 .0117-.004.0156-.0078A.9164.9164 0 0059.8575 17l.0039-.0039c.0273-.0234.0508-.0507.0742-.0781a.3867.3867 0 00.043-.0664c.0039-.004.0078-.0078.0078-.0117.164-.2735.0703-.6328-.2188-1.0235-.0039-.0078-.0078-.0156-.0156-.0234-.0117-.0156-.0195-.0273-.0312-.043-.6641-.8593-2.1758-1.8008-3.5782-2.1015-.0078 0-.0156 0-.0234-.004-.0586-.0117-.1211-.0234-.1797-.0351a.229.229 0 01-.0508-.0078c-.0508-.0078-.1015-.0156-.1523-.0195a.302.302 0 00-.0586-.0078c-.0469-.004-.0977-.0078-.1445-.0117-.0196-.004-.0391-.004-.0547-.0078-.0664 0-.129-.004-.1914-.004-.1016 0-.2032 0-.3008.004-.0547 0-.1094.0039-.168.0078-.039.0039-.086.0039-.125.0039-.0781.0078-.1523.0117-.2265.0195-.0196 0-.043 0-.0625.0039a5.0487 5.0487 0 00-.254.0273h-.0273a5.2634 5.2634 0 00-.2617.039h-.0156a4.9043 4.9043 0 00-.254.043c-.0038 0-.0077.004-.0156.004a6.5526 6.5526 0 00-.5117.1132c-.0039 0-.0039.004-.0039.004-.082.0195-.164.0429-.246.0663-.0782.0235-.1524.0508-.2227.0743-.0078 0-.0118.0039-.0196.0039-.0703.0273-.1406.0507-.211.078a.066.066 0 01-.0194.0079 3.0557 3.0557 0 00-.1993.086c-.0078.0038-.0195.0038-.0273.0117-.0586.0234-.1211.0546-.1758.082-.0156.0078-.0273.0117-.039.0195a2.2573 2.2573 0 00-.168.086c-.0156.0078-.0274.0156-.043.0234-.0508.0273-.1015.0586-.1523.0898a.2906.2906 0 00-.0469.0274c-.0664.039-.129.082-.1914.121-.0742.0548-.1484.1055-.2149.1602-.0078 0-.0117.004-.0117.0078-.332.2461-.6172.5078-.8515.8125-.0078.0117-.0196.0235-.0274.0352-.0273.043-.0586.082-.086.121-.0194.0313-.039.0626-.0585.0938a.6788.6788 0 00-.043.0703 2.0007 2.0007 0 00-.086.1563c-.0038.0078-.0077.0117-.0116.0195-.211.418-.332.8985-.379 1.4805 0 .0078 0 .0156-.0038.0234-.004.1016-.0118.2032-.0157.3125 0 .082 0 .164.004.2461v.0352c.0429 1.1172.5507 1.957 1.4687 2.6094.0078.0039.0156.0117.0234.0156l.1172.082c.0273.0195.0586.0352.086.0547.0077.0078.0195.0117.0273.0156.9062.5743 2.0156.9024 2.9414 1.1641.4531.1328.8594.246.9805.2812.0273.0078.0546.0157.078.0274.5548.1836.9806.332 1.3321.4726.0274.0078.0508.0196.0781.0274.0078.0039.0196.0078.0313.0156.1992.082.3945.168.582.2617a6.934 6.934 0 01.4453.2461c.3711.2305.6563.4805.8477.754.0078.0077.0117.0156.0156.0234a.2969.2969 0 01.0469.0742.2625.2625 0 01.0273.043.4265.4265 0 01.0313.0586c.0117.0195.0195.043.0312.0625l.0235.0468c.0078.0235.0195.0469.0273.0742.004.0118.0117.0274.0156.043l.0235.082a.501.501 0 01.0117.0391.6828.6828 0 01.0195.086.139.139 0 01.0078.039l.0118.0938c.0039.0117.0039.0234.0039.0351.0039.0469.0078.0899.0078.1367 0 .0703-.004.1368-.0078.2032 0 .0195-.004.039-.004.0585a1.026 1.026 0 01-.0234.1524c0 .0156-.0039.0312-.0078.0469-.0234.1367-.0625.2656-.1133.3945-.0039.0039-.0039.0078-.0039.0117-.0273.0586-.0547.1211-.0859.1758-.0039.0078-.0039.0117-.0078.0156-.0664.125-.1445.2461-.2422.3594a3.0436 3.0436 0 01-.1484.168c-.004 0-.004 0-.004.0039-.1054.1054-.2226.203-.3437.293-.0039.0038-.0078.0038-.0078.0077-.0586.039-.1172.082-.1758.1172-.0078.0078-.0156.0117-.0234.0156a4.2295 4.2295 0 01-.4414.2383c-.043.0196-.0899.043-.1367.0625-.039.0156-.0742.0313-.1133.0469-.1055.039-.207.0781-.3125.1133a.2187.2187 0 00-.0469.0156c-.0625.0195-.125.0352-.1875.0547-.0156.0039-.0351.0117-.0508.0156a6.421 6.421 0 01-.6015.129h-.0117c-.0977.0156-.1914.0273-.2813.039-.0351.0039-.0664.0078-.1015.0078-.0313.0039-.0625.0039-.0977.0078a4.3994 4.3994 0 01-.2227.0078 7.3903 7.3903 0 01-.4218-.0117c-.0547 0-.1094-.004-.1641-.0078-.0742-.0078-.1523-.0117-.2227-.0196a3.1262 3.1262 0 01-.1992-.0195c-.0586-.0078-.1133-.0156-.168-.0234-.121-.0196-.2343-.0352-.3476-.0586-.0508-.0117-.1055-.0195-.1563-.0313-.0586-.0156-.1171-.0273-.1757-.043a2.7397 2.7397 0 01-.1914-.0507c-.043-.0117-.0899-.0235-.129-.0352a4.1948 4.1948 0 01-.3124-.1054l-.0704-.0235c-.2265-.086-.4492-.1797-.668-.289-.0077-.004-.0195-.0118-.0312-.0157-.1406-.0703-.3789-.2031-.6054-.332-.0196-.0117-.043-.0234-.0625-.0352-.1602-.0937-.297-.1718-.4258-.2343a.226.226 0 00-.0274-.0157.066.066 0 00-.0195-.0078c-.0352-.0156-.0625-.0312-.0938-.043a.1886.1886 0 01-.0273-.0117c-.082-.0312-.1563-.0547-.2305-.0625-.0234-.0039-.0468-.0039-.0703-.0039-.0078-.0039-.0156-.0039-.0234-.0039-.1485 0-.2774.0508-.3985.1641a.6652.6652 0 00-.0742.0742.1037.1037 0 01-.0195.0235 1.884 1.884 0 00-.039.0507.3545.3545 0 00-.0196.0313c-.0117.0156-.0234.0312-.0312.0469a.1394.1394 0 00-.0157.0351l-.0234.0469c-.004.0117-.0078.0195-.0117.0312a.3652.3652 0 00-.0157.0508c-.0039.0117-.0078.0196-.0078.0313l-.0117.0586c0 .0078-.0039.0156-.0039.0234-.0039.0273-.0039.0508-.0039.0742v.0117c0 .0313.004.0586.0117.0899v.0156c.0078.0235.0118.0508.0196.0742l.0117.0352c.0078.0195.0117.043.0234.0625a.188.188 0 00.0117.0273c.0508.1172.1329.2383.2383.3555.1133.125.2578.25.4258.379.0039 0 .0039 0 .0039.0038.0469.0313.0938.0664.1445.1016.0118.0078.0196.0156.0313.0195a6.292 6.292 0 00.4453.2773c.039.0235.0781.047.1172.0665.039.0234.0781.043.1172.0625.0469.0273.1015.0546.1523.082.0352.0156.0664.0351.1016.0508.0781.039.1601.0781.2422.1172a.1175.1175 0 00.0312.0156c.0899.043.1797.082.2695.1172.0391.0156.0743.0312.1133.0468a.0555.0555 0 00.0235.0078c.836.3282 1.8672.547 2.7773.586.0664.0039.1367.0078.2031.0078h.004c.0312 0 .0585 0 .0898-.004h.211c.0077 0 .0155 0 .0234-.0038 1.4804-.0469 2.6953-.4297 3.7304-1.1875v-.004c1.1485-.8671 1.7813-2.0898 1.7813-3.4374 0-.086-.004-.1719-.0078-.254 0-.0312-.004-.0624-.004-.0898m9.5508-11.207h-.0117c-1.8203 0-3.539.7422-4.7813 2.0547v-1.1172c0-.5156-.3984-.9375-.9023-.9375-.0352 0-.0664.004-.0977.004-.2226.0234-.418.121-.5625.2656-.0039 0-.0039 0-.0078.0039-.0117.0156-.0273.0312-.039.0468a.047.047 0 00-.0196.0196c-.0117.0117-.0195.0234-.0273.0351a.214.214 0 01-.0273.0352l-.0118.0234a.6702.6702 0 01-.0351.0547c0 .004 0 .0078-.004.0117l-.035.0703c-.0196.0586-.0391.1172-.0508.1758 0 .004 0 .0078-.004.0078a4.5811 4.5811 0 01-.0117.086c0 .0312-.0039.0625-.0039.0976v14.5078l-.0117.0625.0469.039c0 .0196.0039.047.0156.0743 0 .004.004.0117.004.0156a.1832.1832 0 00.039.0625c.121.2305.3437.4063.6054.4844l.0196.004h.2187c.0352 0 .0703 0 .1055-.004.0234-.0039.0469-.0117.0703-.0156.0117 0 .0195 0 .0313-.004a.8475.8475 0 00.0937-.0273h.0039c.164-.0585.3047-.1601.3984-.2968l.0118-.0118c.0625-.0664.0976-.1367.1328-.2343.0039-.0117.0078-.0196.0078-.0274.0039-.0039.0039-.0039.0039-.0078.0156-.0468.0273-.0937.039-.1406l.004-.0156V20.203c.0624-2.6172 2.203-4.746 4.7734-4.75h.0078c2.6172 0 4.746 2.129 4.746 4.7461v8.6328c0 .0352.004.0664.0079.0977a.9047.9047 0 00.2617.5664s.0039 0 .0039.0039c.0156.0156.0312.0273.0469.043a.0685.0685 0 00.0195.0156c.0117.0117.0234.0195.0351.0273a.2145.2145 0 00.0352.0274.0627.0627 0 01.0273.0156c.0157.0117.0352.0195.0508.0313.004 0 .0078.0039.0156.0039.0196.0117.043.0234.0665.0351h.0039a.8695.8695 0 00.1718.0508c.0078 0 .0117.0039.0157.0039.0273.0039.0507.0078.078.0117a.7858.7858 0 00.0977.004c.0313 0 .0625 0 .0938-.004.0273-.0039.0547-.0078.0781-.0117.004 0 .0117-.0039.0157-.0039a.9064.9064 0 00.1757-.0508l.0704-.0351c.0039 0 .0078-.004.0117-.004.0195-.0117.0351-.0195.0547-.0312.0078-.0078.0156-.0117.0234-.0156a.2145.2145 0 00.0352-.0274c.0117-.0078.0273-.0156.039-.0273.004-.0039.0117-.0078.0157-.0156.0156-.0157.0351-.0274.0507-.043v-.0039c.1485-.1445.2461-.3398.2657-.5664.0039-.0313.0039-.0625.0039-.0977v-8.6328c0-3.6445-2.961-6.6094-6.6055-6.6172m16.8516-.0311c4.2422 0 7.6914 3.6367 7.6914 8.1094 0 4.4726-3.4492 8.1093-7.6914 8.1093a6.418 6.418 0 01-.3907-.0117c-.0195 0-.0351 0-.0546-.0039-.1133-.0039-.2266-.0156-.336-.0273h-.0117c-1.6758-.1836-3.2422-.9492-4.4883-2.2032-.0508-.0507-.1055-.1015-.1523-.1562-.004 0-.004-.0039-.0078-.0039-.0274-.0273-.0508-.0586-.0782-.0898a8.818 8.818 0 01-.1757-.1954c-.047-.0507-.0899-.1093-.1368-.164-.0312-.043-.0664-.086-.1015-.129a4.2794 4.2794 0 01-.1992-.2655l-.0235-.0352a8.1919 8.1919 0 01-1.4453-3.6016c-.0195-.121-.0312-.2422-.043-.3633-.0039-.0117-.0039-.0273-.0078-.043a4.8533 4.8533 0 01-.0234-.3359c-.0039-.0234-.0039-.0468-.0039-.0742a6.9623 6.9623 0 01-.0117-.4062c0-.1367.0039-.2735.0117-.4063 0-.0273 0-.0508.0039-.0742a4.6837 4.6837 0 01.0234-.336c.004-.0156.004-.0312.0078-.043.0118-.121.0235-.2421.043-.3632a8.1919 8.1919 0 011.4453-3.6016.085.085 0 01.0196-.0312 7.0825 7.0825 0 01.203-.2734c.0313-.0391.0665-.0782.0977-.1211.047-.0586.0938-.1133.1407-.172a7.1658 7.1658 0 01.168-.1835c.0273-.0313.0585-.0664.0859-.0977.0039 0 .0039-.0039.0078-.0039.043-.0507.0937-.0976.1406-.1445 1.246-1.2578 2.8164-2.0312 4.5-2.2148h.0117c.1094-.0118.2227-.0196.336-.0274.0195 0 .0351-.0039.0546-.0039a6.4341 6.4341 0 01.3907-.0117zm5.789 7.4726v-.0078c-.1367-1.4062-.7148-2.6757-1.578-3.6562-.0392-.043-.0743-.086-.1134-.129l-.0703-.0702c-.0469-.0469-.0898-.0938-.1367-.1407-.043-.043-.0898-.082-.1328-.121-.0274-.0235-.0508-.0508-.0781-.0743-.0704-.0625-.1407-.121-.211-.1797 0 0-.0039 0-.0039-.0039-.8164-.6601-1.7969-1.0937-2.8515-1.2148-.0118 0-.0196-.0039-.0274-.0039-.082-.0117-.1601-.0156-.2422-.0195-.0195-.004-.0351-.004-.0508-.004-.0976-.0077-.1953-.0077-.293-.0077-.0976 0-.1952 0-.2929.0078-.0156 0-.0312 0-.0508.0039-.082.0039-.1601.0078-.2422.0195-.0078 0-.0156.0039-.0273.0039-1.0547.1211-2.0352.5547-2.8516 1.2148 0 .004-.0039.004-.0039.004a8.6046 8.6046 0 00-.2109.1796c-.0273.0235-.0508.0469-.0781.0703-.043.043-.0899.082-.1328.125-.043.043-.086.0899-.1329.1368l-.0742.0742c-.0351.039-.0703.082-.1093.125-.8633.9805-1.4454 2.2539-1.582 3.6601v.0078a5.8716 5.8716 0 00-.0196.2735c0 .0156-.004.0312-.004.0468-.0038.1055-.0077.211-.0077.3165 0 3.4335 2.6406 6.2382 5.8203 6.2382 3.1797 0 5.8203-2.8047 5.8203-6.2382 0-.1055-.0039-.211-.0078-.3165 0-.0156-.0039-.0312-.0039-.0468-.0039-.0938-.0117-.1836-.0195-.2735zm24.5079-7.0703c-.008-.0078-.0118-.0156-.0196-.0234a.9106.9106 0 00-.3593-.2695h-.004c-.0156-.0118-.0352-.0157-.0508-.0235-.008 0-.0156-.0039-.0273-.0078-.125-.043-.2617-.0508-.3945-.0312h-.004c-.2696.043-.5274.207-.672.4492h-.004c-.0194.039-.043.0781-.0585.1172l-.004.0039v.0039l-4.4766 12.2539-3.5156-8.3672c-.0352-.0781-.082-.1484-.1367-.2149-.1914-.2226-.4844-.3632-.7852-.3632-.0469 0-.0898 0-.1367.0117h-.0156c-.3125.0547-.6055.2734-.7383.5664v.0039l-3.5156 8.3672-1.7031-4.629-2.8047-7.6288a1.0598 1.0598 0 00-.0508-.1172l-.0078-.0078c-.086-.1602-.2227-.2852-.3867-.3633 0 0-.004 0-.004-.0039a1.1582 1.1582 0 00-.2577-.0781c-.0078 0-.0117 0-.0196-.004a1.5161 1.5161 0 00-.1328-.0077h-.0312c-.0195 0-.039 0-.0586.0039-.0117 0-.0273.0039-.039.0039-.0196.0039-.0352.0039-.0508.0078-.0118.0039-.0235.0039-.0352.0078-.0195.0039-.039.0078-.0586.0156-.0078.0039-.0156.0039-.0234.0078-.0196.0078-.039.0117-.0586.0234h-.004c-.16.0703-.289.1914-.3827.332-.004.0079-.0078.0118-.0118.0196l-.0117.0234c-.0703.1172-.1133.254-.1289.3907a.8931.8931 0 00.0625.4375l3.2461 8.7226 2.082 5.5938v.0039c.086.211.211.3554.3829.4336.004.0039.0117.0078.0156.0117a.0588.0588 0 00.0156.0117c0 .0039.004.0039.008.0078.008.0039.0117.0078.0195.0156h.008a.2606.2606 0 00.121.039c.004 0 .008.004.0118.004.0156.0039.0312.0117.0469.0156.008 0 .0156.004.0234.004.0977.0312.1601.0429.2382.0429.043 0 .082-.004.125-.0117a.4452.4452 0 00.0977-.0235c.008-.0039.0156-.0039.0234-.0078a.4566.4566 0 00.0937-.0351c.0117-.004.0234-.0078.0352-.0157.0195-.0117.043-.0234.0664-.0351a.6677.6677 0 01.0547-.0352c.0117-.0078.0234-.0195.0352-.0273a1.0927 1.0927 0 00.0781-.0625c.004-.004.008-.0078.0117-.0157.0273-.0273.0547-.0546.082-.0859 0-.0039.004-.0078.008-.0117a.9098.9098 0 00.0664-.1016 1.208 1.208 0 00.0547-.125l.004-.0117.0117-.0156.0117-.0274 3.5274-8.4218 3.5586 8.453a.7449.7449 0 00.1289.2384c.008.0117.0156.0195.0234.0312a.9653.9653 0 00.0625.0703c.0117.0078.0234.0196.0352.0274.0195.0195.043.039.0664.0586.0117.0078.0195.0156.0312.0195a.9984.9984 0 00.082.0547l.0234.0117c.0312.0156.0586.0313.0937.043.008.0039.0156.0078.0273.0078a.5569.5569 0 00.0859.0312 5.544 5.544 0 01.1133.0235h.1172a.73.73 0 00.1328-.0118c.0117 0 .0195 0 .0312-.0039a.8931.8931 0 00.1093-.0273.1877.1877 0 00.0273-.0117c.0391-.0117.0781-.0313.1133-.0508.004 0 .008-.0039.0117-.0039a1.627 1.627 0 00.1211-.082c.1563-.1172.2695-.2696.3477-.457v-.004l2.1992-5.9218 3.0937-8.332c.1212-.293.0744-.6133-.0936-.8633a.3428.3428 0 00-.0312-.0469m49.6757.2617a.2236.2236 0 00-.008-.0507c0-.0118-.004-.0235-.008-.0352-.004-.0195-.008-.039-.0117-.0547-.004-.0117-.008-.0234-.0117-.0312a.1746.1746 0 00-.0234-.0625c0-.0078-.004-.0118-.008-.0196a.4388.4388 0 00-.039-.0742v-.0039a.925.925 0 00-.172-.2148l-.004-.004-.004-.0038c-.332-.332-.8007-.375-1.1679-.1172-.0117.0078-.0195.0156-.0312.0195l-.0469.0352c-.0234.0234-.0469.043-.0703.0664 0 0-.004 0-.004.0039l-9.1523 8.9219V7.6679c0-.0312 0-.0624-.004-.0937-.0352-.3437-.2657-.6289-.5782-.7617-.004 0-.004-.004-.008-.004a.3441.3441 0 00-.0586-.0194.2827.2827 0 00-.0312-.0118 1.0035 1.0035 0 00-.0508-.0117.6265.6265 0 00-.043-.0117.2286.2286 0 00-.0508-.0078c-.0156-.004-.0273-.004-.043-.0078-.0352-.004-.0664-.004-.0977-.004-.5117 0-.9375.4259-.9375.9337v21.164c0 .5117.4258.9375.9375.9375.0312 0 .0664 0 .0977-.0039.004 0 .008-.0039.0156-.0039.0273-.0039.0547-.0039.0781-.0117.008 0 .0156-.0039.0234-.0039.0234-.0078.047-.0117.0703-.0195.004 0 .008-.004.0117-.004.3594-.1132.625-.4218.6641-.7929.004-.0312.004-.0625.004-.0977v-3.5703l3.082-3.078 5.9883 7.2265c.0391.0625.082.1172.1367.1601a.1952.1952 0 00.0312.0274c.0156.0117.0312.0234.047.0312.0194.0157.039.0235.0585.0352.008.0039.0195.0117.0273.0156.0273.0117.0508.0195.0781.0313.008.0039.0156.0039.0195.0078.0312.0078.0586.0156.0898.0234.004 0 .0117.0039.0195.0039a.672.672 0 00.0937.0156c.008 0 .0156 0 .0234.004.0391 0 .0781.0038.1211.0038a1.247 1.247 0 00.1758-.0117h.004a.9943.9943 0 00.3047-.0976c.004 0 .004-.004.004-.004a1.1817 1.1817 0 00.1289-.082l.0117-.0117c.3555-.3555.4102-.8398.1523-1.2422a1.7375 1.7375 0 00-.0742-.1055l-6.082-7.3867 6.039-5.836c.1602-.164.2579-.3632.2813-.578 0-.004 0-.0078.004-.0118v-.0625c0-.0117.004-.0234.004-.0312v-.0156c0-.0157-.004-.0274-.004-.043 0-.0117-.004-.0234-.004-.0352" fill="#29B5E8"/></svg>